PathFileType  4	(X/Y/Z) /Users/kristensteudel/Documents/NMBL_Research/BertecForceProcessing/anc_files/
DataRate	CameraRate	NumFrames	NumMarkers	Units	OrigDataRate	OrigDataStartFrame	OrigNumFrames
  200.0		  200.0		   10		     46		 mm	  200.0	      147	   1171
Frame#	Time	r_knee			r_shank_antsup			r_ankle			r_calc			r_5meta			r_toe			L_knee			L_shank_antsup			L_ankle			L_calc			L_5meta			L_toe			r_sh2			r_sh3			r_sh4			L_sh2			L_sh3			r_thigh1			r_thigh2			r_thigh3			r_thigh4			r_thigh5			L_thigh1			L_thigh2			L_thigh3			L_thigh4			r.ASIS			r.PSIS			L.ASIS			L.PSIS			C7			R_Shoulder			L_Shoulder			Sternum			R_humerus			R_elbow_med			R_elbow_lat			R_forearm			R_wrist_radius			R_wrist_ulna			L_humerus			L_elbow_med			L_elbow_lat			L_forearm			L_wrist_radius			L_wrist_ulna			
		X1	Y1	Z1	X2	Y2	Z2	X3	Y3	Z3	X4	Y4	Z4	X5	Y5	Z5	X6	Y6	Z6	X7	Y7	Z7	X8	Y8	Z8	X9	Y9	Z9	X10	Y10	Z10	X11	Y11	Z11	X12	Y12	Z12	X13	Y13	Z13	X14	Y14	Z14	X15	Y15	Z15	X16	Y16	Z16	X17	Y17	Z17	X18	Y18	Z18	X19	Y19	Z19	X20	Y20	Z20	X21	Y21	Z21	X22	Y22	Z22	X23	Y23	Z23	X24	Y24	Z24	X25	Y25	Z25	X26	Y26	Z26	X27	Y27	Z27	X28	Y28	Z28	X29	Y29	Z29	X30	Y30	Z30	X31	Y31	Z31	X32	Y32	Z32	X33	Y33	Z33	X34	Y34	Z34	X35	Y35	Z35	X36	Y36	Z36	X37	Y37	Z37	X38	Y38	Z38	X39	Y39	Z39	X40	Y40	Z40	X41	Y41	Z41	X42	Y42	Z42	X43	Y43	Z43	X44	Y44	Z44	X45	Y45	Z45	X46	Y46	Z46	

147	0.73000	986.460	569.672	-155.931	1033.934	461.277	-148.295	1089.412	131.088	-194.901	1027.309	114.897	-273.481	1203.678	35.115	-177.407	1255.573	79.411	-217.457	780.180	527.249	-471.799	669.381	527.935	-452.658	416.885	691.239	-388.302	433.900	754.325	-338.462	277.448	600.104	-386.870	280.990	567.307	-314.155	1062.490	345.874	-161.081	962.548	441.470	-140.576	982.251	330.492	-170.311	700.892	609.111	-477.937	590.296	648.662	-441.406	977.119	801.955	-125.062	1013.754	695.561	-152.690	988.420	648.059	-131.208	877.485	756.266	-101.453	920.674	652.676	-135.971	887.666	727.279	-481.315	876.199	587.673	-465.936	771.795	738.344	-507.874	764.630	602.405	-479.138	883.372	1033.858	-181.320	675.519	1074.223	-246.882	870.240	1040.061	-443.109	673.400	1081.551	-350.200	825.612	1570.860	-274.416	872.993	1505.661	-74.995	885.388	1534.766	-461.709	958.678	1438.811	-271.670	751.548	1320.731	16.394	596.116	1276.204	-16.421	623.624	1292.914	59.338	723.496	1143.900	40.995	771.198	1039.803	15.302	727.887	1022.117	41.122	781.940	1327.056	-573.843	641.609	1246.587	-538.281	689.924	1286.264	-616.080	799.837	1147.122	-610.184	885.049	1087.264	-556.310	843.952	1048.338	-601.204
148	0.73500	974.656	563.873	-154.808	1018.863	452.947	-147.472	1060.092	120.001	-196.017	997.169	108.247	-274.620	1165.149	26.123	-179.072	1223.289	60.322	-219.798	797.666	525.283	-473.170	688.101	527.437	-453.323	440.516	698.872	-388.188	457.421	761.490	-338.375	301.001	609.067	-389.601	302.722	575.295	-317.683	1043.210	336.690	-160.981	947.046	435.657	-139.781	962.296	324.501	-169.893	721.419	609.393	-479.144	612.483	651.593	-441.401	971.648	797.026	-120.147	1006.718	690.627	-149.730	979.681	642.948	-131.510	869.976	752.116	-101.824	912.413	648.081	-135.755	897.298	728.111	-481.647	891.172	588.210	-466.560	781.338	735.501	-508.363	778.837	599.932	-481.813	882.989	1031.422	-181.090	674.449	1071.547	-244.988	869.789	1037.744	-443.070	674.013	1078.026	-348.393	823.299	1566.446	-272.149	874.369	1500.663	-73.723	880.471	1532.241	-461.957	957.977	1436.418	-273.473	762.361	1306.957	18.677	607.368	1255.709	-9.836	637.084	1272.414	65.568	743.397	1129.203	41.494	795.841	1028.370	14.115	754.381	1008.173	40.754	775.042	1325.107	-573.862	634.963	1245.987	-535.995	682.502	1284.329	-614.845	782.970	1136.957	-614.226	865.808	1070.034	-564.448	820.167	1034.954	-609.681
149	0.74000	963.558	558.334	-153.619	1004.411	444.715	-147.201	1028.185	111.451	-200.583	963.868	105.511	-278.255	1128.294	29.654	-179.126	1186.567	49.817	-230.776	815.896	523.397	-474.333	707.447	529.210	-455.695	464.356	704.633	-388.452	480.694	766.793	-337.749	325.018	615.097	-393.130	325.131	581.149	-320.898	1023.591	327.362	-161.081	931.852	430.222	-138.126	942.126	318.208	-168.772	741.958	609.619	-481.053	633.945	653.074	-441.794	967.138	791.237	-115.706	1000.173	684.730	-146.473	970.859	637.446	-132.367	862.663	747.948	-102.043	904.077	643.362	-135.710	907.448	729.182	-481.699	907.185	589.258	-467.711	791.286	732.312	-509.012	794.201	596.340	-483.180	882.436	1029.035	-180.576	673.659	1068.984	-243.696	869.371	1035.075	-442.884	673.768	1074.478	-347.413	820.868	1561.784	-270.025	875.573	1495.610	-72.434	875.819	1529.395	-461.851	957.084	1433.846	-275.496	773.795	1293.334	20.275	619.658	1234.436	-3.790	651.802	1251.585	71.307	764.689	1114.960	42.024	821.886	1018.190	12.503	781.974	995.289	39.681	767.845	1322.844	-574.867	628.299	1245.251	-533.963	674.727	1282.152	-613.787	765.909	1127.700	-618.376	844.623	1054.903	-572.159	795.532	1023.110	-617.130
150	0.74500	952.865	552.561	-152.148	989.412	435.770	-146.327	992.966	109.911	-208.042	921.536	96.106	-279.278	1091.559	31.686	-180.287	1146.539	51.118	-236.227	834.940	521.744	-475.249	727.511	527.453	-456.128	487.710	708.621	-388.609	503.389	770.309	-337.267	349.016	618.690	-396.376	347.805	584.553	-324.291	1002.274	317.817	-162.139	916.413	424.554	-136.054	920.666	312.200	-166.323	761.785	609.390	-484.473	654.964	653.378	-442.008	962.961	784.452	-111.720	993.137	677.901	-143.761	961.873	631.696	-132.952	855.814	743.985	-102.212	895.577	638.539	-134.586	918.952	730.889	-481.486	923.816	590.843	-468.193	801.788	729.625	-510.276	810.779	592.929	-484.414	881.540	1026.962	-179.998	672.585	1065.664	-243.010	869.010	1031.756	-442.346	674.028	1070.220	-345.846	818.700	1557.060	-268.169	876.202	1490.734	-71.140	871.799	1526.066	-462.737	956.294	1431.231	-277.488	785.811	1280.025	21.413	633.022	1212.591	1.346	667.998	1230.565	77.024	787.026	1101.520	41.675	848.912	1009.499	10.262	811.018	983.656	37.816	760.766	1319.904	-574.017	621.176	1244.453	-532.214	666.440	1280.252	-613.145	748.267	1119.905	-622.137	822.924	1042.149	-579.304	770.638	1014.135	-624.187
151	0.75000	942.215	545.851	-152.018	975.767	425.236	-147.154	951.210	106.288	-214.239	878.636	83.465	-285.789	1052.281	31.569	-181.412	1106.886	49.791	-236.838	854.685	520.344	-476.025	747.904	526.363	-456.819	510.623	710.484	-389.110	525.233	772.069	-337.466	372.722	620.018	-400.031	370.760	585.812	-326.927	980.132	307.734	-165.169	903.055	418.482	-133.260	898.538	307.827	-166.047	781.538	607.036	-487.654	676.194	652.466	-442.815	956.635	777.729	-110.137	984.603	670.347	-142.597	952.067	625.066	-132.001	848.955	740.357	-103.337	886.104	633.187	-134.640	930.117	732.738	-480.658	940.795	593.172	-468.119	814.513	726.999	-512.332	828.609	590.135	-485.543	877.469	1022.219	-179.679	670.987	1062.252	-242.739	868.611	1027.753	-441.271	673.455	1066.444	-345.002	815.825	1551.935	-267.282	876.849	1485.801	-69.741	866.534	1522.057	-463.672	955.464	1428.452	-279.371	798.058	1267.385	21.425	647.646	1190.690	5.388	685.138	1209.625	80.952	810.464	1089.462	40.271	877.092	1003.439	6.047	841.366	973.897	34.794	753.581	1316.527	-573.136	613.537	1243.784	-531.090	657.794	1278.684	-612.420	729.678	1114.972	-626.018	801.269	1031.923	-585.625	745.501	1007.390	-630.386
152	0.75500	932.147	538.980	-153.417	964.066	414.909	-151.834	908.176	101.807	-219.803	839.279	76.152	-291.771	1013.239	31.603	-183.110	1066.878	49.366	-240.525	875.567	519.984	-476.403	768.253	525.841	-457.745	532.240	710.848	-390.062	545.997	772.121	-338.000	396.578	618.493	-402.896	394.252	584.162	-328.700	958.017	298.172	-171.385	892.416	412.160	-131.982	875.669	305.839	-171.254	801.724	604.714	-490.032	696.637	651.015	-444.928	950.542	770.883	-111.245	975.414	662.609	-141.537	941.124	618.460	-130.558	841.503	735.872	-103.295	876.020	628.693	-135.291	941.590	735.305	-478.908	958.584	596.408	-467.275	827.762	724.299	-512.804	847.576	588.418	-486.287	877.813	1022.715	-177.336	669.288	1058.688	-242.913	867.896	1023.192	-439.758	672.686	1061.657	-344.796	813.559	1547.479	-266.287	877.780	1480.641	-68.779	862.484	1518.750	-464.623	954.687	1425.777	-280.957	810.773	1255.936	20.867	664.523	1168.823	9.057	704.315	1189.474	82.921	834.853	1079.193	37.792	905.416	999.325	1.678	873.311	967.863	29.946	746.609	1313.089	-572.089	605.546	1243.763	-530.459	648.160	1278.178	-612.128	712.054	1112.009	-629.085	779.412	1024.044	-591.167	721.580	1003.449	-635.682
153	0.76000	921.963	532.551	-157.168	950.022	404.369	-158.721	872.801	101.814	-225.017	800.381	74.809	-295.436	974.726	32.280	-184.900	1028.519	48.638	-241.867	898.174	520.843	-475.354	789.818	524.388	-457.581	553.115	708.802	-390.622	564.878	770.768	-339.476	420.766	613.334	-402.542	416.207	579.424	-333.410	932.043	289.722	-182.930	879.321	409.527	-136.248	849.765	305.000	-175.258	822.274	603.401	-492.047	716.215	649.222	-449.659	942.820	764.014	-111.642	964.807	655.054	-141.026	929.337	611.737	-131.110	833.194	732.160	-103.272	864.959	624.469	-136.160	953.151	738.917	-476.403	975.988	600.406	-465.144	839.254	722.781	-512.643	867.340	588.078	-486.855	875.665	1020.514	-175.139	667.434	1055.104	-243.461	867.436	1018.278	-437.631	671.404	1057.241	-345.325	811.361	1543.275	-266.714	878.788	1475.954	-67.285	859.626	1515.362	-464.706	953.900	1423.361	-282.237	823.972	1246.489	19.443	682.450	1148.980	11.107	723.961	1171.632	83.403	859.754	1071.161	34.233	934.074	999.010	-3.817	905.385	965.094	24.313	739.518	1309.507	-569.554	596.989	1244.943	-530.236	637.980	1278.679	-611.969	695.000	1111.097	-631.476	757.372	1018.767	-596.147	698.654	1001.863	-640.174
154	0.76500	910.953	527.368	-161.392	932.945	400.436	-165.320	837.945	102.203	-229.304	763.955	73.621	-300.763	935.817	32.487	-185.727	990.925	48.891	-242.587	921.317	523.780	-474.110	812.196	524.343	-457.264	571.023	705.386	-392.641	581.229	767.785	-341.241	442.982	605.358	-404.277	439.563	572.131	-333.294	907.301	286.005	-186.089	862.966	410.631	-142.271	827.150	305.456	-175.662	843.450	603.233	-492.466	734.653	647.453	-453.688	935.532	756.980	-111.587	953.863	647.489	-143.625	916.476	605.659	-133.867	824.773	729.283	-104.611	852.806	620.918	-137.896	965.163	743.937	-473.132	994.872	606.962	-462.816	853.508	722.653	-513.399	888.035	589.460	-486.557	873.457	1018.493	-172.239	665.505	1052.226	-244.324	866.998	1013.115	-435.207	669.489	1052.647	-346.578	809.322	1540.158	-265.468	879.780	1471.485	-65.789	855.631	1512.060	-465.252	953.152	1420.860	-283.356	837.069	1239.038	17.056	700.902	1133.249	10.777	743.463	1158.585	82.256	884.000	1066.721	29.176	962.196	1002.514	-10.844	936.512	966.087	18.213	731.923	1307.449	-568.765	587.454	1247.272	-530.534	627.735	1280.744	-611.642	678.799	1112.072	-633.388	736.899	1016.213	-599.697	676.797	1002.376	-643.105
155	0.77000	897.578	522.509	-164.179	912.395	399.655	-170.619	799.876	103.207	-233.349	725.965	74.089	-304.374	896.992	32.794	-187.696	951.812	48.707	-244.868	944.716	529.088	-472.234	835.129	526.131	-456.972	587.754	699.678	-393.928	594.573	763.424	-342.158	464.780	593.547	-405.088	462.252	561.345	-333.303	884.623	283.925	-188.277	842.720	409.498	-145.716	805.522	305.464	-177.556	864.230	605.022	-492.574	753.645	645.914	-455.775	928.005	750.211	-112.559	942.306	640.628	-146.253	903.067	600.409	-137.588	816.532	726.983	-105.162	839.460	617.755	-141.193	977.771	750.833	-469.054	1013.746	615.590	-459.330	868.342	724.272	-514.033	909.040	592.782	-485.443	871.343	1016.555	-168.621	663.515	1049.467	-245.751	867.173	1008.131	-432.626	667.070	1048.367	-347.702	807.477	1537.963	-264.643	881.219	1467.794	-64.457	852.302	1509.559	-465.695	952.423	1418.137	-284.151	849.512	1233.318	13.219	717.966	1122.634	7.685	760.565	1149.172	80.300	906.243	1067.304	23.880	988.617	1008.701	-17.822	967.661	969.380	10.240	723.284	1307.656	-568.746	577.627	1250.992	-531.193	617.735	1284.506	-611.211	663.164	1114.680	-634.443	717.392	1016.363	-602.308	656.206	1005.145	-644.881
156	0.77500	881.746	518.334	-166.284	891.654	396.481	-173.290	763.277	104.608	-235.356	687.907	76.540	-305.999	858.278	32.877	-189.694	913.060	48.368	-246.756	968.185	536.778	-469.654	858.898	528.561	-455.507	602.442	692.071	-395.712	605.321	756.846	-345.537	486.732	579.027	-405.824	485.118	547.322	-333.681	861.543	282.778	-192.068	822.376	407.556	-146.601	782.228	304.516	-180.525	884.661	607.570	-492.012	772.031	645.385	-456.977	919.655	745.309	-114.152	930.580	635.372	-147.978	889.680	596.881	-140.786	807.584	725.959	-106.217	826.681	616.121	-143.077	988.095	759.603	-464.688	1031.719	626.875	-455.405	882.481	727.886	-513.311	929.481	598.412	-483.630	869.385	1014.697	-164.740	661.781	1047.481	-247.291	866.287	1002.762	-429.588	665.803	1044.185	-349.277	805.807	1536.225	-264.192	882.906	1465.123	-63.736	849.835	1507.500	-465.623	951.717	1415.877	-284.783	861.556	1229.378	10.064	735.072	1113.580	3.627	775.939	1141.088	77.803	927.174	1070.482	18.189	1013.299	1017.850	-25.115	996.272	976.669	2.224	714.134	1310.252	-569.139	567.448	1256.648	-531.441	608.470	1290.045	-610.622	647.967	1118.895	-634.920	698.866	1018.888	-603.740	636.528	1009.768	-645.582
